<?xml version="1.0" encoding="UTF-8"?><svg id="a" xmlns="http://www.w3.org/2000/svg" viewBox="0 0 200 200"><defs><style>.b{fill:#fff;}</style></defs><path class="b" d="M28.5,66.5s73-23,71.5,33.5,57.01-14.63,36.76-7.57,15.74,31.07,27.74,32.07"/><path d="M164.46,125c-6.9-.57-23.03-9.34-30.43-18.08-7.44,8.71-18.97,17.7-26.65,15.08-5.57-1.9-8.22-9.31-7.88-22.02,.36-13.63-3.66-23.71-11.95-29.96-19.97-15.06-58.52-3.17-58.9-3.05l-.3-.95c.39-.12,39.42-12.17,59.8,3.2,8.56,6.46,12.72,16.81,12.35,30.79-.32,12.22,2.1,19.3,7.2,21.04,7.28,2.48,18.47-6.4,25.69-14.92-1.74-2.21-2.88-4.4-3.14-6.44-.31-2.41,.55-5.72,6.34-7.74,2.26-.79,3.77-.69,4.5,.3,1.76,2.38-2.34,8.51-4.19,11.04-.67,.92-1.41,1.87-2.2,2.82,6.98,8.28,22.53,17.28,29.83,17.89l-.08,1Zm-25.3-32.56c-.58,0-1.33,.16-2.23,.47-4.15,1.45-6.06,3.69-5.68,6.67,.22,1.76,1.25,3.73,2.83,5.75,.73-.89,1.41-1.76,2.03-2.62,3.94-5.4,4.95-8.83,4.19-9.85-.21-.28-.59-.42-1.14-.42Z"/></svg>