<?xml version="1.0" encoding="UTF-8"?><svg id="a" xmlns="http://www.w3.org/2000/svg" viewBox="0 0 200 200"><defs><style>.b{fill:#fff;}</style></defs><path class="b" d="M39.5,104.5s56-24,44-44-34,68-3,66,81-63,81-63"/><path d="M79.48,127.03c-7.15,0-12.03-4.9-14.15-14.24-1.41-6.22-1.48-13.79-.63-21.32-1.43,.94-2.94,1.89-4.51,2.84-10.47,6.33-20.39,10.6-20.48,10.64l-.39-.92c.23-.1,13.44-5.82,25.55-13.9,1.96-15.55,7.67-30.57,13.24-32.8,1.51-.61,3.74-.59,5.84,2.9,1.89,3.16,2.26,6.6,1.08,10.24-2.02,6.24-8.46,13.04-19.17,20.23-.94,7.75-.96,15.58,.47,21.86,2.65,11.68,9.17,13.74,14.16,13.43,30.43-1.96,80.15-62.21,80.65-62.82l.77,.63c-.12,.15-12.71,15.45-28.92,30.8-21.82,20.65-39.46,31.55-52.44,32.39-.36,.02-.71,.03-1.05,.03Zm.11-68.99c-.37,0-.74,.08-1.12,.23-5.11,2.05-10.44,16.25-12.45,31.09,8.3-5.68,15.86-12.43,18.04-19.18,1.08-3.35,.75-6.52-.99-9.42-1.09-1.82-2.24-2.72-3.49-2.72Z"/></svg>