<?xml version="1.0" encoding="UTF-8"?><svg id="a" xmlns="http://www.w3.org/2000/svg" viewBox="0 0 200 200"><defs><style>.b{fill:#fff;}</style></defs><path class="b" d="M163,76.03s-20.52,19.06-58.23,32.39c-37.71,13.33-32.65-19.2-12.13-30.93,20.52-11.73,8.8,10.26,8.8,10.26-16.12,36.65-67.43,49.84-67.43,49.84"/><path d="M34.12,138.08l-.25-.97c.38-.1,28.41-7.51,49.32-26.03-2.76-.99-4.76-2.73-5.9-5.21-3.83-8.37,3.36-22.1,15.09-28.8,6.17-3.53,10.05-4.38,11.85-2.63,3.11,3.02-1.8,12.49-2.37,13.56-3.89,8.85-9.87,16.35-16.68,22.63,4.71,1.05,11.35,.18,19.41-2.67,37.17-13.14,57.85-32.1,58.06-32.29l.68,.73c-.21,.19-21.03,19.28-58.41,32.5-8.6,3.04-15.66,3.86-20.63,2.53-21.16,18.99-49.8,26.56-50.18,26.66Zm67.58-63.53c-1.62,0-4.32,.81-8.82,3.38-11.11,6.35-18.25,19.72-14.68,27.52,1.09,2.38,3.08,4,5.84,4.87,6.92-6.29,13-13.83,16.93-22.76,1.47-2.76,4.76-10.29,2.57-12.41-.35-.34-.92-.6-1.84-.6Z"/></svg>