<?xml version="1.0" encoding="UTF-8"?><svg id="a" xmlns="http://www.w3.org/2000/svg" viewBox="0 0 200 200"><defs><style>.b{fill:#fff;}</style></defs><path class="b" d="M23.5,51.5s48,10,57,28,8,37,2,24-13-32,6-19,50,61,76,30"/><path d="M145.41,125.25c-14.56,0-29.02-14.13-41.82-26.63-5.59-5.46-10.88-10.62-15.38-13.71-2.67-1.83-4.72-2.95-6.28-3.57,5.38,11.75,6.76,23.64,4.96,26.3-.41,.61-.93,.67-1.2,.65-1.07-.09-2.26-1.58-3.64-4.58-6.2-13.42-7.89-21.07-5.17-23.36,.76-.64,1.82-.84,3.18-.6v-.02c-8.8-17.58-56.19-27.63-56.66-27.73l.2-.98c.12,.02,12.19,2.56,25.19,7.27,17.54,6.35,28.36,13.41,32.15,21,.13,.26,.26,.52,.39,.79,1.97,.63,4.44,1.97,7.45,4.03,4.58,3.13,9.89,8.32,15.51,13.82,12.97,12.67,27.66,27.03,42.17,26.32,6.48-.32,12.25-3.61,17.65-10.04l.77,.64c-5.51,6.57-11.69,10.07-18.37,10.4-.37,.02-.73,.03-1.1,.03Zm-66.37-44.6c-.71,0-1.19,.19-1.51,.47-1.29,1.09-2.3,5.42,5.43,22.18,1.72,3.73,2.65,3.99,2.82,4,.04,0,.15,.01,.29-.21,1.5-2.22,.2-14.31-5.45-26.2-.62-.17-1.15-.24-1.58-.24Z"/></svg>