<?xml version="1.0" encoding="UTF-8"?><svg id="a" xmlns="http://www.w3.org/2000/svg" viewBox="0 0 567.08 60.98"><defs><style>.b{isolation:isolate;}</style></defs><g class="b" transform="translate(0 71.4)"><g class="b"><path d="M29.4,25.96h30.58c.25,1.51,.34,3.02,.34,4.62,0,16.8-12.6,30.41-30.16,30.41S0,47.38,0,30.58,12.68,.08,30.16,.08c9.83,0,18.48,4.79,23.94,12.18l-6.8,5.29c-3.78-5.54-10.16-9.07-17.14-9.07-12.18,0-21.17,9.32-21.17,22.09s8.99,22.01,21.17,22.01,20.08-7.48,20.92-18.73H29.4v-7.9Z"/></g><g class="b"><path d="M98.28,47.46h-21.67l-4.96,12.43h-9.07L87.45,0l24.86,59.89h-9.07l-4.96-12.43Zm-18.65-7.64h15.54l-7.73-19.82-7.81,19.82Z"/></g><g class="b"><path d="M142.46,25.54c9.24,0,16.63,7.9,16.63,16.97s-7.31,17.39-17.3,17.39h-22.09v-8.4h21.25c5.04,0,9.07-4.03,9.07-8.99s-4.03-8.99-9.07-8.99h-7.73c-9.07,0-16.3-7.22-16.3-16.21S124.15,1.09,133.22,1.09h18.31v7.98h-17.3c-4.96,0-8.57,3.53-8.57,8.23s3.61,8.23,8.57,8.23h8.23Z"/></g><g class="b"><path d="M176.65,9.07h-14.53V1.09h37.63v7.98h-14.53V59.89h-8.57V9.07Z"/><path d="M249.48,57.46v2.44h-8.74v-2.44c0-6.47-4.28-14.78-15.2-14.78h-8.65v17.22h-8.57V1.09h18.73c13.61,0,22.43,9.58,22.43,20.92,0,8.4-5.04,14.11-9.83,16.8,7.31,4.2,9.83,11.59,9.83,18.65Zm-22.09-48.38h-10.5v25.87h10.5c8.06,0,13.19-6.38,13.19-12.94,0-7.14-5.04-12.94-13.19-12.94Z"/><path d="M257.12,30.58c0-16.88,12.68-30.49,30.16-30.49s30.16,13.61,30.16,30.49-12.68,30.41-30.16,30.41-30.16-13.61-30.16-30.41Zm8.99,0c0,12.68,8.99,22.01,21.17,22.01s21.17-9.32,21.17-22.01-8.99-22.09-21.17-22.09-21.17,9.32-21.17,22.09Z"/><path d="M326,1.09h7.9l30.07,36.04V1.09h8.06V60.9l-37.97-46.45V59.89h-8.06V1.09Z"/></g><g class="b"><path d="M414.87,47.46h-21.67l-4.96,12.43h-9.07L404.04,0l24.86,59.89h-9.07l-4.96-12.43Zm-18.65-7.64h15.54l-7.73-19.82-7.81,19.82Z"/></g><g class="b"><path d="M442.51,1.09V40.99c0,7.31,5.21,11.76,11.59,11.76s11.68-4.45,11.68-11.76V1.09h8.57V40.99c0,12.43-9.07,19.99-20.33,19.99s-20.08-7.39-20.08-19.99V1.09h8.57Z"/></g><g class="b"><path d="M496.6,9.07h-14.53V1.09h37.63v7.98h-14.53V59.89h-8.57V9.07Z"/></g><g class="b"><path d="M553.05,47.46h-21.67l-4.96,12.43h-9.07L542.22,0l24.86,59.89h-9.07l-4.96-12.43Zm-18.65-7.64h15.54l-7.73-19.82-7.81,19.82Z"/></g></g></svg>