<?xml version="1.0" encoding="UTF-8"?><svg id="a" xmlns="http://www.w3.org/2000/svg" viewBox="0 0 155.05 156.53"><path d="M14.77,67.37l3.13-17.19c.88,.01,1.73,.12,2.63,.28,9.45,1.72,15.81,10.19,14.01,20.06-1.79,9.82-10.73,15.56-20.18,13.85-9.49-1.73-15.85-10.25-14.06-20.07,1-5.53,4.58-9.9,9.29-12.21l2.28,4.37c-3.5,1.56-6.14,4.79-6.85,8.71-1.25,6.85,3.08,12.85,10.26,14.16,7.13,1.3,13.29-2.8,14.54-9.65,1.21-6.66-2.15-12.05-8.39-13.67l-2.21,12.19-4.44-.81Z"/><path d="M46.14,36.97l-8.88,8.63,2.92,7.07-3.72,3.61L22.81,21.82l34.03,14.66-3.72,3.61-6.98-3.12Zm-10.69,4.29l6.37-6.19-11.06-5.05,4.69,11.24Z"/><path d="M65.97,15.22c5.15-1.18,10.27,2.28,11.43,7.33,1.18,5.15-1.85,10.62-7.42,11.89l-12.3,2.82-1.07-4.68,11.84-2.71c2.81-.64,4.54-3.4,3.91-6.16-.64-2.81-3.39-4.49-6.2-3.85l-4.3,.99c-5.05,1.16-10-1.95-11.14-6.95-1.15-5.01,1.96-9.95,7.01-11.11L67.9,.45l1.02,4.45-9.64,2.21c-2.76,.63-4.32,3.06-3.72,5.68,.6,2.62,3.06,4.12,5.82,3.49l4.59-1.05Z"/><path d="M93.17,6.49l-8.04-2.07,1.14-4.42,20.83,5.36-1.14,4.42-8.04-2.07-7.23,28.13-4.74-1.22,7.23-28.13Z"/><path d="M117.78,53.55l-.96,1-3.6-3.46,.96-1.01c2.56-2.67,4.08-7.79-.42-12.11l-3.57-3.42-6.81,7.1-3.53-3.39,23.26-24.25,7.73,7.41c5.61,5.38,5.46,12.82,.98,17.5-3.32,3.46-7.66,3.83-10.7,3.04,1.35,4.62-.53,8.67-3.32,11.58Zm10.03-28.69l-4.33-4.15-10.23,10.67,4.33,4.15c3.33,3.19,7.96,2.58,10.56-.12,2.82-2.94,3.04-7.33-.32-10.55Z"/><path d="M134.82,51.21c9.52-1.56,18.37,4.33,19.99,14.18,1.62,9.85-4.88,18.27-14.4,19.83-9.47,1.56-18.32-4.33-19.94-14.19-1.62-9.85,4.88-18.27,14.35-19.82Zm.83,5.07c-7.15,1.17-11.58,7.11-10.45,13.98s7.22,11.07,14.37,9.9c7.2-1.18,11.62-7.12,10.5-13.98-1.13-6.87-7.22-11.07-14.42-9.89Z"/><path d="M151.76,104.62l-2.2,3.94-26.36,4.93,17.97,10.06-2.25,4.02-29.83-16.7,33.76-5.97-22.66-12.69,2.25-4.02,29.32,16.41Z"/><path d="M94.69,126.78l11.1-5.5-.62-7.62,4.65-2.3,2.47,36.98-27.93-24.36,4.65-2.3,5.69,5.11Zm11.49-.82l-7.96,3.94,8.99,8.19-1.03-12.13Z"/><path d="M77.49,156.13l1.87-22.72c.34-4.16-2.42-6.94-6.05-7.24-3.64-.3-6.86,1.99-7.2,6.15l-1.87,22.72-4.88-.4,1.87-22.72c.58-7.08,6.1-10.96,12.51-10.43,6.36,.52,11.09,5.15,10.5,12.33l-1.87,22.72-4.88-.4Z"/><path d="M38.38,140.06l6.87,4.66-2.56,3.77-17.8-12.06,2.56-3.78,6.87,4.66,16.29-24.04,4.05,2.75-16.29,24.04Z"/><path d="M29.95,98.37l6.19,10.73,7.57-1.1,2.59,4.49-36.75,4.8,22.54-29.42,2.59,4.49-4.74,6Zm1.54,11.41l-4.44-7.69-7.61,9.49,12.04-1.8Z"/></svg>